<svg width="22" height="21" viewBox="0 0 22 21" fill="none" xmlns="http://www.w3.org/2000/svg">
<path d="M12 9.5H16.8C17.9201 9.5 18.4802 9.5 18.908 9.71799C19.2843 9.90973 19.5903 10.2157 19.782 10.592C20 11.0198 20 11.5799 20 12.7V19.5M12 19.5V4.7C12 3.5799 12 3.01984 11.782 2.59202C11.5903 2.21569 11.2843 1.90973 10.908 1.71799C10.4802 1.5 9.9201 1.5 8.8 1.5H5.2C4.0799 1.5 3.51984 1.5 3.09202 1.71799C2.71569 1.90973 2.40973 2.21569 2.21799 2.59202C2 3.01984 2 3.5799 2 4.7V19.5M21 19.5H1M5.5 5.5H8.5M5.5 9.5H8.5M5.5 13.5H8.5" stroke="#065EA1" stroke-width="2" stroke-linecap="round" stroke-linejoin="round"/>
</svg>
