<svg width="20" height="23" viewBox="0 0 20 23" fill="none" xmlns="http://www.w3.org/2000/svg">
<path d="M10 2.00008V11.5001M10 11.5001L18.5 6.77779M10 11.5001L1.5 6.77779M10 11.5001V21.0001M18.5 16.2223L10.777 11.9318C10.4934 11.7742 10.3516 11.6954 10.2015 11.6645C10.0685 11.6372 9.93146 11.6372 9.79855 11.6645C9.64838 11.6954 9.50658 11.7742 9.22297 11.9318L1.5 16.2223M19 15.5586V7.44153C19 7.09889 19 6.92757 18.9495 6.77477C18.9049 6.63959 18.8318 6.51551 18.7354 6.41082C18.6263 6.29248 18.4766 6.20928 18.177 6.04288L10.777 1.93177C10.4934 1.77421 10.3516 1.69543 10.2015 1.66454C10.0685 1.63721 9.93146 1.63721 9.79855 1.66454C9.64838 1.69543 9.50658 1.77421 9.22297 1.93177L1.82297 6.04288C1.52345 6.20928 1.37369 6.29248 1.26463 6.41082C1.16816 6.51551 1.09515 6.63959 1.05048 6.77477C1 6.92757 1 7.09889 1 7.44153V15.5586C1 15.9013 1 16.0726 1.05048 16.2254C1.09515 16.3606 1.16816 16.4847 1.26463 16.5893C1.37369 16.7077 1.52345 16.7909 1.82297 16.9573L9.22297 21.0684C9.50658 21.226 9.64838 21.3047 9.79855 21.3356C9.93146 21.363 10.0685 21.363 10.2015 21.3356C10.3516 21.3047 10.4934 21.226 10.777 21.0684L18.177 16.9573C18.4766 16.7909 18.6263 16.7077 18.7354 16.5893C18.8318 16.4847 18.9049 16.3606 18.9495 16.2254C19 16.0726 19 15.9013 19 15.5586Z" stroke="#065EA1" stroke-width="2" stroke-linecap="round" stroke-linejoin="round"/>
</svg>
