<svg width="24" height="15" viewBox="0 0 24 15" fill="none" xmlns="http://www.w3.org/2000/svg">
<path d="M23.5 1.5C23.7761 1.5 24 1.27614 24 1C24 0.723858 23.7761 0.5 23.5 0.5H17.5C17.2239 0.5 17 0.723858 17 1C17 1.27614 17.2239 1.5 17.5 1.5H19.5C19.7761 1.5 20 1.72386 20 2C20 2.27614 19.7761 2.5 19.5 2.5C19.2239 2.5 19 2.72386 19 3V3.5C19 4.05228 18.5523 4.5 18 4.5H16.8547C16.1402 4.5 15.4799 4.11878 15.1227 3.49994L14.7763 2.90006C14.4191 2.28122 13.7588 1.9 13.0443 1.9H11.0101C10.2954 1.9 9.63494 2.28144 9.27776 2.90055L8.93224 3.49944C8.57506 4.11856 7.91463 4.5 7.19987 4.5H6C5.44772 4.5 5 4.05228 5 3.5V3C5 2.72386 4.77614 2.5 4.5 2.5C4.22386 2.5 4 2.27614 4 2C4 1.72386 4.22386 1.5 4.5 1.5H6.5C6.77614 1.5 7 1.27614 7 1C7 0.723858 6.77614 0.5 6.5 0.5H0.5C0.223858 0.5 0 0.723858 0 1C0 1.27614 0.223858 1.5 0.5 1.5H2.5C2.77614 1.5 3 1.72386 3 2C3 2.27614 2.77614 2.5 2.5 2.5C2.22386 2.5 2 2.72386 2 3V6C2 6.82843 2.67157 7.5 3.5 7.5H4.5C4.77614 7.5 5 7.27614 5 7C5 6.72386 5.22386 6.5 5.5 6.5H8.01435C8.10881 6.5 8.1961 6.55039 8.24334 6.63219C8.31921 6.76355 8.26902 6.93132 8.1362 7.00461C6.92775 7.67138 5.91081 8.64029 5.18607 9.81859C4.41251 11.0763 4.00201 12.5235 4 14C4 14.1326 4.05268 14.2598 4.14645 14.3536C4.24021 14.4473 4.36739 14.5 4.5 14.5C4.63261 14.5 4.75979 14.4473 4.85355 14.3536C4.94732 14.2598 5 14.1326 5 14C5.00174 12.699 5.36598 11.4241 6.05186 10.3186C6.52516 9.55566 7.1387 8.89417 7.85633 8.36702C8.40169 7.96641 9.14669 8.19758 9.48512 8.78356C9.71401 9.17987 10.1369 9.424 10.5946 9.424H13.4714C13.9216 9.424 14.3377 9.18377 14.5628 8.79382C14.8973 8.21442 15.6351 7.98835 16.1723 8.38718C16.8841 8.91573 17.492 9.5769 17.9606 10.338C18.6386 11.4393 18.9984 12.7068 19 14C19 14.1326 19.0527 14.2598 19.1464 14.3536C19.2402 14.4473 19.3674 14.5 19.5 14.5C19.6326 14.5 19.7598 14.4473 19.8536 14.3536C19.9473 14.2598 20 14.1326 20 14C19.9983 12.5314 19.5924 11.0915 18.8269 9.83813C18.1124 8.66826 17.1103 7.70295 15.9181 7.03291C15.779 6.95472 15.7267 6.7783 15.8063 6.64001C15.8562 6.55338 15.9486 6.5 16.0486 6.5H18.5C18.7761 6.5 19 6.72386 19 7C19 7.27614 19.2239 7.5 19.5 7.5H20.5C21.3284 7.5 22 6.82843 22 6V3C22 2.72386 21.7761 2.5 21.5 2.5C21.2239 2.5 21 2.27614 21 2C21 1.72386 21.2239 1.5 21.5 1.5H23.5Z" fill="#065EA1"/>
</svg>
