<svg width="22" height="23" viewBox="0 0 22 23" fill="none" xmlns="http://www.w3.org/2000/svg">
<path d="M4.99958 19.5004L13.8686 10.6314C14.2646 10.2354 14.4627 10.0373 14.691 9.96316C14.8918 9.8979 15.1082 9.8979 15.309 9.96316C15.5373 10.0373 15.7354 10.2354 16.1314 10.6314L20.4053 14.9053M9.5 8C9.5 9.10457 8.60457 10 7.5 10C6.39543 10 5.5 9.10457 5.5 8C5.5 6.89543 6.39543 6 7.5 6C8.60457 6 9.5 6.89543 9.5 8ZM21 11.5C21 17.0228 16.5228 21.5 11 21.5C5.47715 21.5 1 17.0228 1 11.5C1 5.97715 5.47715 1.5 11 1.5C16.5228 1.5 21 5.97715 21 11.5Z" stroke="#065EA1" stroke-width="2" stroke-linecap="round" stroke-linejoin="round"/>
</svg>
