<svg width="22" height="21" viewBox="0 0 22 21" fill="none" xmlns="http://www.w3.org/2000/svg">
<path d="M14 15.5V19.5H8V15.5M4.2 15.5H17.8C18.9201 15.5 19.4802 15.5 19.908 15.282C20.2843 15.0903 20.5903 14.7843 20.782 14.408C21 13.9802 21 13.4201 21 12.3V4.7C21 3.5799 21 3.01984 20.782 2.59202C20.5903 2.21569 20.2843 1.90973 19.908 1.71799C19.4802 1.5 18.9201 1.5 17.8 1.5H4.2C3.07989 1.5 2.51984 1.5 2.09202 1.71799C1.71569 1.90973 1.40973 2.21569 1.21799 2.59202C1 3.01984 1 3.57989 1 4.7V12.3C1 13.4201 1 13.9802 1.21799 14.408C1.40973 14.7843 1.71569 15.0903 2.09202 15.282C2.51984 15.5 3.0799 15.5 4.2 15.5Z" stroke="#065EA1" stroke-width="2" stroke-linecap="round" stroke-linejoin="round"/>
</svg>
